<svg xmlns="http://www.w3.org/2000/svg" xmlns:xlink="http://www.w3.org/1999/xlink" width="480" zoomAndPan="magnify" viewBox="0 0 360 359.999987" height="480" preserveAspectRatio="xMidYMid meet" version="1.2"><defs><clipPath id="7872badbd2"><path d="M 48.15625 34.316406 L 312.15625 34.316406 L 312.15625 325 L 48.15625 325 Z M 48.15625 34.316406 "/></clipPath><clipPath id="84165f9639"><path d="M 108 108 L 252 108 L 252 252 L 108 252 Z M 108 108 "/></clipPath></defs><g id="de43923504"><g clip-rule="nonzero" clip-path="url(#7872badbd2)"><path style=" stroke:none;fill-rule:nonzero;fill:#000000;fill-opacity:1;" d="M 180.171875 50.457031 C 173.121094 55.992188 164.238281 61.90625 153.398438 67.339844 C 143.128906 72.460938 131.078125 77.222656 117.148438 80.847656 C 106.277344 83.652344 95.003906 85.378906 84.535156 86.355469 C 75.984375 87.160156 67.980469 87.507812 61.148438 87.621094 C 62.574219 107.929688 65.734375 140.292969 72.207031 171.160156 C 76.820312 193.164062 83.148438 214.410156 91.6875 229.699219 C 104.761719 253.113281 123.105469 271.738281 140.363281 285.648438 C 156.050781 298.304688 170.871094 307.066406 180.15625 312.042969 C 189.457031 307.09375 204.25 298.363281 219.921875 285.734375 C 237.167969 271.855469 255.507812 253.183594 268.640625 229.699219 C 277.191406 214.394531 283.523438 193.136719 288.152344 171.117188 C 294.640625 140.261719 297.796875 107.929688 299.222656 87.621094 C 292.390625 87.519531 284.386719 87.175781 275.808594 86.371094 C 265.339844 85.390625 254.066406 83.664062 243.222656 80.847656 C 227.433594 76.734375 214.097656 71.210938 203.039062 65.3125 C 193.984375 60.480469 186.386719 55.316406 180.171875 50.457031 Z M 147.917969 56.511719 C 159.886719 50.5 169.257812 43.898438 176.207031 38.015625 L 180.128906 34.71875 L 184.050781 38.015625 C 190.308594 43.265625 198.484375 49.132812 208.75 54.613281 C 219.058594 60.105469 231.515625 65.269531 246.28125 69.109375 C 256.386719 71.742188 267.027344 73.351562 276.960938 74.289062 C 286.824219 75.207031 296.210938 75.480469 303.808594 75.480469 L 312.171875 75.480469 L 311.78125 81.925781 C 310.585938 101.671875 307.441406 138.523438 300.058594 173.589844 C 295.214844 196.644531 288.496094 219.054688 279.253906 235.59375 C 265.210938 260.691406 245.789062 280.511719 227.535156 295.199219 C 209.398438 309.824219 192.3125 319.476562 182.941406 324.28125 L 181.585938 324.972656 L 178.699219 324.972656 L 177.359375 324.28125 C 168.003906 319.449219 150.902344 309.738281 132.75 295.113281 C 114.480469 280.398438 95.058594 260.605469 81.074219 235.59375 C 71.847656 219.070312 65.128906 196.675781 60.296875 173.632812 C 52.929688 138.550781 49.785156 101.671875 48.574219 81.925781 L 48.1875 75.480469 L 56.535156 75.480469 C 64.132812 75.480469 73.535156 75.195312 83.382812 74.273438 C 93.316406 73.339844 103.96875 71.726562 114.09375 69.109375 C 127.140625 65.703125 138.386719 61.273438 147.917969 56.511719 Z M 147.917969 56.511719 "/></g><g clip-rule="nonzero" clip-path="url(#84165f9639)"><path style=" stroke:none;fill-rule:nonzero;fill:#000000;fill-opacity:1;" d="M 180.019531 108 C 140.246094 108 108 140.246094 108 180.019531 C 108 219.792969 140.246094 252.039062 180.019531 252.039062 C 219.796875 252.039062 252.039062 219.792969 252.039062 180.019531 C 252.039062 140.246094 219.796875 108 180.019531 108 Z M 180.019531 119.117188 C 207.3125 119.117188 230.46875 137.164062 238.183594 161.949219 C 238.15625 161.96875 238.140625 161.984375 238.140625 161.984375 C 238.757812 163.589844 238.765625 169.292969 233.449219 169.023438 C 216.425781 168.160156 214.425781 153.382812 179.988281 153.335938 C 145.550781 153.382812 143.550781 168.160156 126.53125 169.023438 C 121.6875 169.269531 121.261719 164.566406 121.6875 162.507812 C 129.230469 137.433594 152.523438 119.117188 180.019531 119.117188 Z M 122.460938 199.917969 C 121.929688 197.730469 122.234375 194.304688 125.789062 193.238281 C 129.496094 192.125 138.636719 190.519531 148.273438 202.75 C 157.90625 214.980469 166.28125 230.070312 166.800781 233.507812 C 167.296875 236.78125 164.761719 238.945312 162.046875 238.203125 C 162.046875 238.203125 162.039062 238.203125 162.027344 238.207031 C 143.53125 232.476562 128.78125 218.152344 122.460938 199.917969 Z M 198.003906 238.210938 C 197.960938 238.203125 197.929688 238.203125 197.929688 238.203125 C 195.214844 238.941406 192.679688 236.78125 193.175781 233.507812 C 193.695312 230.070312 202.070312 214.980469 211.707031 202.75 C 221.339844 190.519531 230.480469 192.125 234.1875 193.238281 C 238.089844 194.40625 238.078125 198.425781 237.335938 200.527344 C 237.335938 200.527344 237.339844 200.546875 237.347656 200.574219 C 230.902344 218.496094 216.28125 232.550781 198.003906 238.210938 Z M 198.003906 238.210938 "/></g></g></svg>