<svg width="320" height="200" viewBox="0 0 320 200" fill="none" xmlns="http://www.w3.org/2000/svg">
  <!-- Background circle -->
  <circle cx="160" cy="100" r="80" fill="#F1F5F9" stroke="#E2E8F0" stroke-width="2"/>
  
  <!-- Car silhouette -->
  <path d="M120 140 L200 140 L210 130 L190 120 L130 120 L120 130 Z" fill="#64748B" stroke="#475569" stroke-width="1"/>
  
  <!-- Wheels -->
  <circle cx="135" cy="140" r="8" fill="#475569" stroke="#334155" stroke-width="1"/>
  <circle cx="185" cy="140" r="8" fill="#475569" stroke="#334155" stroke-width="1"/>
  
  <!-- Road -->
  <path d="M100 160 L220 160" stroke="#94A3B8" stroke-width="3" stroke-dasharray="5,5"/>
  
  <!-- Safety shield -->
  <path d="M160 60 L180 70 L180 90 L160 100 L140 90 L140 70 Z" fill="#E2E8F0" stroke="#94A3B8" stroke-width="1"/>
  <path d="M160 70 L160 85" stroke="#64748B" stroke-width="2" stroke-linecap="round"/>
  <path d="M155 80 L165 80" stroke="#64748B" stroke-width="2" stroke-linecap="round"/>
  
  <!-- Checkmark -->
  <path d="M150 110 L165 125 L180 110" stroke="#10B981" stroke-width="3" stroke-linecap="round" stroke-linejoin="round"/>
  
  <!-- Speed lines -->
  <path d="M240 80 L250 85 L240 90" stroke="#CBD5E1" stroke-width="1" opacity="0.6"/>
  <path d="M245 70 L255 75 L245 80" stroke="#CBD5E1" stroke-width="1" opacity="0.4"/>
  <path d="M250 60 L260 65 L250 70" stroke="#CBD5E1" stroke-width="1" opacity="0.2"/>
</svg>