<svg preserveAspectRatio="none" width="100%" height="100%" overflow="visible" style="display: block;" viewBox="0 0 40 40" fill="none" xmlns="http://www.w3.org/2000/svg">
<g id="SVG">
<path id="Vector" d="M25.795 21.4833L28.32 35.6933C28.3483 35.8607 28.3248 36.0326 28.2527 36.1863C28.1806 36.3399 28.0633 36.4678 27.9166 36.553C27.7698 36.6382 27.6005 36.6765 27.4313 36.6628C27.2622 36.6492 27.1012 36.5843 26.97 36.4767L21.0033 31.9983C20.7153 31.7831 20.3654 31.6669 20.0058 31.6669C19.6463 31.6669 19.2964 31.7831 19.0083 31.9983L13.0317 36.475C12.9005 36.5824 12.7398 36.6472 12.5708 36.6609C12.4019 36.6746 12.2328 36.6364 12.0861 36.5514C11.9394 36.4665 11.8221 36.3389 11.7499 36.1856C11.6776 36.0322 11.6538 35.8605 11.6817 35.6933L14.205 21.4833" stroke="var(--stroke-0, #03449E)" stroke-width="2" stroke-linecap="round" stroke-linejoin="round"/>
<path id="Vector_2" d="M20 23.3333C25.5228 23.3333 30 18.8562 30 13.3333C30 7.81049 25.5228 3.33333 20 3.33333C14.4772 3.33333 10 7.81049 10 13.3333C10 18.8562 14.4772 23.3333 20 23.3333Z" stroke="var(--stroke-0, #03449E)" stroke-width="2" stroke-linecap="round" stroke-linejoin="round"/>
</g>
</svg>
