<svg preserveAspectRatio="none" width="100%" height="100%" overflow="visible" style="display: block;" viewBox="0 0 16 16" fill="none" xmlns="http://www.w3.org/2000/svg">
<g id="SVG">
<path id="Vector" d="M10.318 8.59333L11.328 14.2773C11.3393 14.3443 11.3299 14.4131 11.3011 14.4745C11.2722 14.536 11.2253 14.5871 11.1666 14.6212C11.1079 14.6553 11.0402 14.6706 10.9725 14.6651C10.9049 14.6597 10.8405 14.6337 10.788 14.5907L8.40133 12.7993C8.28612 12.7133 8.14615 12.6667 8.00233 12.6667C7.85851 12.6667 7.71855 12.7133 7.60333 12.7993L5.21267 14.59C5.16021 14.633 5.09591 14.6589 5.02833 14.6644C4.96075 14.6698 4.89311 14.6546 4.83444 14.6206C4.77577 14.5866 4.72885 14.5356 4.69995 14.4742C4.67104 14.4129 4.66152 14.3442 4.67267 14.2773L5.682 8.59333" stroke="var(--stroke-0, #111722)" stroke-width="1.33333" stroke-linecap="round" stroke-linejoin="round"/>
<path id="Vector_2" d="M8 9.33333C10.2091 9.33333 12 7.54247 12 5.33333C12 3.12419 10.2091 1.33333 8 1.33333C5.79086 1.33333 4 3.12419 4 5.33333C4 7.54247 5.79086 9.33333 8 9.33333Z" stroke="var(--stroke-0, #111722)" stroke-width="1.33333" stroke-linecap="round" stroke-linejoin="round"/>
</g>
</svg>
