<svg preserveAspectRatio="none" width="100%" height="100%" overflow="visible" style="display: block;" viewBox="0 0 16 16" fill="none" xmlns="http://www.w3.org/2000/svg">
<g id="SVG">
<path id="Vector" d="M8 10V11.3333M4 14H12C12.3536 14 12.6928 13.8595 12.9428 13.6095C13.1929 13.3594 13.3333 13.0203 13.3333 12.6667V8.66667C13.3333 8.31304 13.1929 7.97391 12.9428 7.72386C12.6928 7.47381 12.3536 7.33333 12 7.33333H4C3.64638 7.33333 3.30724 7.47381 3.05719 7.72386C2.80714 7.97391 2.66667 8.31304 2.66667 8.66667V12.6667C2.66667 13.0203 2.80714 13.3594 3.05719 13.6095C3.30724 13.8595 3.64638 14 4 14ZM10.6667 7.33333V4.66667C10.6667 3.95942 10.3857 3.28115 9.88562 2.78105C9.38552 2.28095 8.70724 2 8 2C7.29276 2 6.61448 2.28095 6.11438 2.78105C5.61428 3.28115 5.33333 3.95942 5.33333 4.66667V7.33333H10.6667Z" stroke="var(--stroke-0, #0351B4)" stroke-width="1.33333" stroke-linecap="round" stroke-linejoin="round"/>
</g>
</svg>
