<svg preserveAspectRatio="none" width="100%" height="100%" overflow="visible" style="display: block;" viewBox="0 0 16 16" fill="none" xmlns="http://www.w3.org/2000/svg">
<g id="SVG">
<path id="Vector" d="M7.2392 2.3416C7.4792 1.6048 8.5216 1.6048 8.7608 2.3416L9.6168 4.9752C9.6691 5.13559 9.77076 5.27534 9.90726 5.37448C10.0438 5.47362 10.2081 5.52708 10.3768 5.5272H13.1464C13.9216 5.5272 14.2432 6.5192 13.6168 6.9752L11.3768 8.6024C11.24 8.70162 11.1382 8.84161 11.0859 9.00228C11.0336 9.16296 11.0335 9.33607 11.0856 9.4968L11.9416 12.1304C12.1816 12.8672 11.3376 13.4808 10.7096 13.0248L8.4696 11.3976C8.33296 11.2984 8.16845 11.245 7.9996 11.245C7.83075 11.245 7.66623 11.2984 7.5296 11.3976L5.2896 13.0248C4.6624 13.4808 3.8192 12.8672 4.0584 12.1304L4.9144 9.4968C4.96654 9.33607 4.96645 9.16296 4.91413 9.00228C4.86182 8.84161 4.75998 8.70162 4.6232 8.6024L2.384 6.976C1.7576 6.52 2.08 5.528 2.8544 5.528H5.6232C5.79204 5.52804 5.95656 5.47467 6.09322 5.37552C6.22988 5.27637 6.33166 5.13652 6.384 4.976L7.24 2.3424L7.2392 2.3416Z" fill="var(--fill-0, #F9703E)"/>
</g>
</svg>
