<svg preserveAspectRatio="none" width="100%" height="100%" overflow="visible" style="display: block;" viewBox="0 0 20 20" fill="none" xmlns="http://www.w3.org/2000/svg">
<g id="SVG">
<path id="Vector" d="M9.049 2.927C9.349 2.006 10.652 2.006 10.951 2.927L12.021 6.219C12.0864 6.41949 12.2135 6.59418 12.3841 6.7181C12.5547 6.84203 12.7601 6.90884 12.971 6.909H16.433C17.402 6.909 17.804 8.149 17.021 8.719L14.221 10.753C14.05 10.877 13.9227 11.052 13.8573 11.2529C13.7919 11.4537 13.7918 11.6701 13.857 11.871L14.927 15.163C15.227 16.084 14.172 16.851 13.387 16.281L10.587 14.247C10.4162 14.123 10.2106 14.0562 9.9995 14.0562C9.78844 14.0562 9.58279 14.123 9.412 14.247L6.612 16.281C5.828 16.851 4.774 16.084 5.073 15.163L6.143 11.871C6.20817 11.6701 6.20806 11.4537 6.14267 11.2529C6.07728 11.052 5.94997 10.877 5.779 10.753L2.98 8.72C2.197 8.15 2.6 6.91 3.568 6.91H7.029C7.24005 6.91006 7.4457 6.84334 7.61652 6.7194C7.78735 6.59546 7.91458 6.42065 7.98 6.22L9.05 2.928L9.049 2.927Z" fill="var(--fill-0, #F9703E)"/>
</g>
</svg>
