<svg preserveAspectRatio="none" width="100%" height="100%" overflow="visible" style="display: block;" viewBox="0 0 24 24" fill="none" xmlns="http://www.w3.org/2000/svg">
<g id="SVG">
<path id="Vector" d="M21.42 10.922C21.599 10.843 21.7509 10.7133 21.8569 10.5488C21.9629 10.3843 22.0183 10.1924 22.0163 9.99674C22.0143 9.80108 21.9549 9.61032 21.8456 9.44808C21.7362 9.28584 21.5816 9.15926 21.401 9.084L12.83 5.18C12.5694 5.06115 12.2864 4.99964 12 4.99964C11.7136 4.99964 11.4306 5.06115 11.17 5.18L2.6 9.08C2.42197 9.15797 2.27052 9.28614 2.16417 9.44882C2.05782 9.6115 2.00118 9.80164 2.00118 9.996C2.00118 10.1904 2.05782 10.3805 2.16417 10.5432C2.27052 10.7059 2.42197 10.834 2.6 10.912L11.17 14.82C11.4306 14.9389 11.7136 15.0004 12 15.0004C12.2864 15.0004 12.5694 14.9389 12.83 14.82L21.42 10.922Z" stroke="var(--stroke-0, #03449E)" stroke-linecap="round" stroke-linejoin="round"/>
<path id="Vector_2" d="M22 10V16" stroke="var(--stroke-0, #03449E)" stroke-linecap="round" stroke-linejoin="round"/>
<path id="Vector_3" d="M6 12.5V16C6 16.7956 6.63214 17.5587 7.75736 18.1213C8.88258 18.6839 10.4087 19 12 19C13.5913 19 15.1174 18.6839 16.2426 18.1213C17.3679 17.5587 18 16.7956 18 16V12.5" stroke="var(--stroke-0, #03449E)" stroke-linecap="round" stroke-linejoin="round"/>
</g>
</svg>
