<svg preserveAspectRatio="none" width="100%" height="100%" overflow="visible" style="display: block;" viewBox="0 0 136 16" fill="none" xmlns="http://www.w3.org/2000/svg">
<path id="Vector" d="M0.157139 15.4683C0.124618 15.4839 0.09543 15.5059 0.0712425 15.533C0.0470549 15.5601 0.0283413 15.5918 0.0161699 15.6263C0.0039985 15.6608 -0.00139223 15.6974 0.000305492 15.734C0.00200322 15.7707 0.0107561 15.8066 0.0260645 15.8397C0.0413729 15.8729 0.0629369 15.9027 0.0895254 15.9273C0.116114 15.952 0.147206 15.9711 0.181027 15.9835C0.214847 15.9959 0.250734 16.0014 0.286638 15.9997C0.322542 15.998 0.35776 15.989 0.390282 15.9734L0.157139 15.4688V15.4683ZM136 15.7211L134.19 13.0794L132.852 15.9985L136 15.7211ZM0.390282 15.9734C0.719746 15.8149 1.04976 15.6575 1.38086 15.5012L1.15101 14.995C0.818804 15.1512 0.487698 15.3098 0.157139 15.4688L0.390282 15.9734ZM3.37133 14.578C4.03699 14.2747 4.70469 13.9761 5.37439 13.6822L5.15767 13.1698C4.48576 13.4646 3.81587 13.7641 3.14804 14.0684L3.37133 14.578ZM7.38839 12.8153C8.06155 12.5312 8.73745 12.2516 9.41553 11.977L9.21304 11.4579C8.53276 11.7342 7.85523 12.0144 7.17988 12.2996L7.38894 12.8153H7.38839ZM11.4531 11.1671C12.1333 10.902 12.8158 10.6419 13.501 10.3857L13.3133 9.86213C12.6259 10.1189 11.9407 10.3795 11.2577 10.6458L11.4531 11.1671ZM15.5599 9.6344C16.2473 9.38881 16.9374 9.14768 17.6286 8.91158L17.4551 8.38244C16.7612 8.6191 16.0689 8.86079 15.3793 9.10749L15.5599 9.6344ZM19.7072 8.21834C20.4012 7.99229 21.0973 7.7707 21.7951 7.55413L21.6358 7.02053C20.9353 7.23766 20.237 7.45981 19.5408 7.68642L19.7072 8.21834ZM23.8912 6.92006C24.5912 6.71355 25.2922 6.51205 25.996 6.31558L25.8515 5.77695C25.1456 5.97454 24.4417 6.1766 23.739 6.38367L23.8912 6.92006ZM28.1091 5.74067C28.814 5.55425 29.5211 5.37229 30.2298 5.19535L30.0996 4.65338C29.3881 4.83087 28.6794 5.01283 27.9717 5.20037L28.1091 5.74067ZM32.3577 4.68017C33.0681 4.51401 33.7796 4.35251 34.4921 4.19569L34.3771 3.65036C33.6607 3.80721 32.9471 3.96963 32.2351 4.13652L32.3577 4.68017ZM36.633 3.74134C37.3467 3.59511 38.0625 3.45333 38.7795 3.31714L38.6793 2.76791C37.9596 2.90522 37.2416 3.04699 36.5252 3.19379L36.633 3.74134ZM40.9319 2.92252C41.65 2.79638 42.3691 2.67526 43.0899 2.5586L43.004 2.0077C42.281 2.12436 41.5591 2.24603 40.8389 2.37274L40.9319 2.92252ZM45.2522 2.22538C45.9724 2.11933 46.6948 2.01886 47.4183 1.9223L47.3477 1.36917C46.6215 1.46517 45.8974 1.56675 45.1739 1.6728L45.2522 2.22538ZM49.5889 1.64992C50.3118 1.56396 51.0364 1.48359 51.7627 1.40768L51.7069 0.85231C50.979 0.92822 50.2511 1.00915 49.5259 1.09511L49.5889 1.64992ZM53.9398 1.19558C54.6649 1.13027 55.3912 1.06999 56.1191 1.01418L56.0786 0.457691C55.3479 0.513507 54.619 0.574346 53.8916 0.639651L53.9398 1.19558ZM58.3011 0.863473C59.0279 0.818262 59.7558 0.778075 60.4847 0.742911L60.459 0.184751C59.7283 0.220226 58.9979 0.260786 58.2677 0.30643L58.3011 0.863473ZM62.6695 0.652489C63.3974 0.627372 64.1258 0.607278 64.8559 0.592208L64.8449 0.0340477C64.1121 0.0491181 63.381 0.0692118 62.6514 0.094329L62.6695 0.652489ZM67.0423 0.562067C67.4071 0.559511 67.772 0.558208 68.1369 0.55816V0C67.7707 0 67.4046 0.00111634 67.039 0.00390713L67.0423 0.562067ZM68.1369 0.55816C68.5019 0.55816 68.8669 0.559276 69.2314 0.562067L69.2347 0.00390713C68.8688 0.00134659 68.5028 4.41906e-05 68.1369 0V0.55816ZM71.4178 0.591649C72.1479 0.607278 72.8763 0.627372 73.6042 0.652489L73.6223 0.094329C72.8912 0.0691767 72.1601 0.0490824 71.4288 0.0340477L71.4178 0.592208V0.591649ZM75.789 0.742353C76.5179 0.778075 77.2458 0.818262 77.9726 0.863473L78.006 0.30643C77.2759 0.260985 76.5454 0.220611 75.8147 0.185309L75.789 0.742353ZM80.1546 1.01418C80.8825 1.06999 81.6088 1.13027 82.3339 1.19558L82.3821 0.639651C81.6535 0.573895 80.9245 0.51324 80.1951 0.457691L80.1546 1.01418ZM84.511 1.40768C85.2373 1.48359 85.9619 1.56396 86.6848 1.64992L86.7478 1.09511C86.0214 1.00903 85.2944 0.928097 84.5668 0.85231L84.511 1.40768ZM88.8554 1.9223C89.5789 2.01831 90.3013 2.11933 91.0221 2.22538L91.0998 1.6728C90.3768 1.56675 89.6522 1.46517 88.926 1.36917L88.8554 1.9223ZM93.1838 2.5586C93.9046 2.67526 94.6243 2.79638 95.3418 2.92252L95.4348 2.37274C94.7139 2.24603 93.9922 2.12435 93.2697 2.0077L93.1838 2.5586ZM97.4937 3.31659C98.2112 3.45333 98.927 3.59511 99.6407 3.74079L99.7485 3.19379C99.0314 3.04679 98.3134 2.90483 97.5944 2.76791L97.4937 3.31659ZM101.782 4.19569C102.495 4.35253 103.206 4.51384 103.916 4.68073L104.039 4.13652C103.327 3.96963 102.613 3.80721 101.897 3.65036L101.782 4.19569ZM106.044 5.19535C106.753 5.37229 107.46 5.55425 108.165 5.74067L108.302 5.20037C107.594 5.01309 106.885 4.83076 106.174 4.65338L106.044 5.19535ZM110.277 6.31558C110.981 6.51205 111.683 6.71355 112.383 6.92006L112.534 6.38423C111.832 6.17664 111.128 5.97421 110.422 5.77695L110.277 6.31558ZM114.479 7.55469C115.177 7.7707 115.873 7.99229 116.567 8.21834L116.733 7.68642C116.036 7.45948 115.338 7.23751 114.638 7.02053L114.479 7.55469ZM118.645 8.91158C119.337 9.14768 120.026 9.38881 120.714 9.6344L120.894 9.10749C120.205 8.86079 119.513 8.6191 118.819 8.38189L118.645 8.91158ZM122.773 10.3862C123.457 10.6419 124.14 10.902 124.821 11.1671L125.016 10.6458C124.333 10.3795 123.648 10.1183 122.96 9.86213L122.773 10.3862ZM126.858 11.977C127.536 12.2516 128.212 12.5312 128.885 12.8153L129.094 12.2996C128.418 12.0144 127.74 11.734 127.061 11.4585L126.858 11.977ZM130.9 13.6822C131.569 13.9759 132.237 14.2743 132.902 14.5775L133.126 14.0679C132.458 13.7637 131.788 13.4641 131.116 13.1692L130.9 13.6822ZM0.157139 15.4683C0.124618 15.4839 0.09543 15.5059 0.0712425 15.533C0.0470549 15.5601 0.0283413 15.5918 0.0161699 15.6263C0.0039985 15.6608 -0.00139223 15.6974 0.000305492 15.734C0.00200322 15.7707 0.0107561 15.8066 0.0260645 15.8397C0.0413729 15.8729 0.0629369 15.9027 0.0895254 15.9273C0.116114 15.952 0.147206 15.9711 0.181027 15.9835C0.214847 15.9959 0.250734 16.0014 0.286638 15.9997C0.322542 15.998 0.35776 15.989 0.390282 15.9734L0.157139 15.4688V15.4683ZM136 15.7211L134.19 13.0794L132.852 15.9985L136 15.7211ZM0.390282 15.9734C0.719746 15.8149 1.04976 15.6575 1.38086 15.5012L1.15101 14.995C0.818804 15.1512 0.487698 15.3098 0.157139 15.4688L0.390282 15.9734ZM3.37133 14.578C4.03699 14.2747 4.70469 13.9761 5.37439 13.6822L5.15767 13.1698C4.48576 13.4646 3.81587 13.7641 3.14804 14.0684L3.37133 14.578ZM7.38839 12.8153C8.06155 12.5312 8.73745 12.2516 9.41553 11.977L9.21304 11.4579C8.53276 11.7342 7.85523 12.0144 7.17988 12.2996L7.38894 12.8153H7.38839ZM11.4531 11.1671C12.1333 10.902 12.8158 10.6419 13.501 10.3857L13.3133 9.86213C12.6259 10.1189 11.9407 10.3795 11.2577 10.6458L11.4531 11.1671ZM15.5599 9.6344C16.2473 9.38881 16.9374 9.14768 17.6286 8.91158L17.4551 8.38244C16.7612 8.6191 16.0689 8.86079 15.3793 9.10749L15.5599 9.6344ZM19.7072 8.21834C20.4012 7.99229 21.0973 7.7707 21.7951 7.55413L21.6358 7.02053C20.9353 7.23766 20.237 7.45981 19.5408 7.68642L19.7072 8.21834ZM23.8912 6.92006C24.5912 6.71355 25.2922 6.51205 25.996 6.31558L25.8515 5.77695C25.1456 5.97454 24.4417 6.1766 23.739 6.38367L23.8912 6.92006ZM28.1091 5.74067C28.814 5.55425 29.5211 5.37229 30.2298 5.19535L30.0996 4.65338C29.3881 4.83087 28.6794 5.01283 27.9717 5.20037L28.1091 5.74067ZM32.3577 4.68017C33.0681 4.51401 33.7796 4.35251 34.4921 4.19569L34.3771 3.65036C33.6607 3.80721 32.9471 3.96963 32.2351 4.13652L32.3577 4.68017ZM36.633 3.74134C37.3467 3.59511 38.0625 3.45333 38.7795 3.31714L38.6793 2.76791C37.9596 2.90522 37.2416 3.04699 36.5252 3.19379L36.633 3.74134ZM40.9319 2.92252C41.65 2.79638 42.3691 2.67526 43.0899 2.5586L43.004 2.0077C42.281 2.12436 41.5591 2.24603 40.8389 2.37274L40.9319 2.92252ZM45.2522 2.22538C45.9724 2.11933 46.6948 2.01886 47.4183 1.9223L47.3477 1.36917C46.6215 1.46517 45.8974 1.56675 45.1739 1.6728L45.2522 2.22538ZM49.5889 1.64992C50.3118 1.56396 51.0364 1.48359 51.7627 1.40768L51.7069 0.85231C50.979 0.92822 50.2511 1.00915 49.5259 1.09511L49.5889 1.64992ZM53.9398 1.19558C54.6649 1.13027 55.3912 1.06999 56.1191 1.01418L56.0786 0.457691C55.3479 0.513507 54.619 0.574346 53.8916 0.639651L53.9398 1.19558ZM58.3011 0.863473C59.0279 0.818262 59.7558 0.778075 60.4847 0.742911L60.459 0.184751C59.7283 0.220226 58.9979 0.260786 58.2677 0.30643L58.3011 0.863473ZM62.6695 0.652489C63.3974 0.627372 64.1258 0.607278 64.8559 0.592208L64.8449 0.0340477C64.1121 0.0491181 63.381 0.0692118 62.6514 0.094329L62.6695 0.652489ZM67.0423 0.562067C67.4071 0.559511 67.772 0.558208 68.1369 0.55816V0C67.7707 0 67.4046 0.00111634 67.039 0.00390713L67.0423 0.562067ZM68.1369 0.55816C68.5019 0.55816 68.8669 0.559276 69.2314 0.562067L69.2347 0.00390713C68.8688 0.00134659 68.5028 4.41906e-05 68.1369 0V0.55816ZM71.4178 0.591649C72.1479 0.607278 72.8763 0.627372 73.6042 0.652489L73.6223 0.094329C72.8912 0.0691767 72.1601 0.0490824 71.4288 0.0340477L71.4178 0.592208V0.591649ZM75.789 0.742353C76.5179 0.778075 77.2458 0.818262 77.9726 0.863473L78.006 0.30643C77.2759 0.260985 76.5454 0.220611 75.8147 0.185309L75.789 0.742353ZM80.1546 1.01418C80.8825 1.06999 81.6088 1.13027 82.3339 1.19558L82.3821 0.639651C81.6535 0.573895 80.9245 0.51324 80.1951 0.457691L80.1546 1.01418ZM84.511 1.40768C85.2373 1.48359 85.9619 1.56396 86.6848 1.64992L86.7478 1.09511C86.0214 1.00903 85.2944 0.928097 84.5668 0.85231L84.511 1.40768ZM88.8554 1.9223C89.5789 2.01831 90.3013 2.11933 91.0221 2.22538L91.0998 1.6728C90.3768 1.56675 89.6522 1.46517 88.926 1.36917L88.8554 1.9223ZM93.1838 2.5586C93.9046 2.67526 94.6243 2.79638 95.3418 2.92252L95.4348 2.37274C94.7139 2.24603 93.9922 2.12435 93.2697 2.0077L93.1838 2.5586ZM97.4937 3.31659C98.2112 3.45333 98.927 3.59511 99.6407 3.74079L99.7485 3.19379C99.0314 3.04679 98.3134 2.90483 97.5944 2.76791L97.4937 3.31659ZM101.782 4.19569C102.495 4.35253 103.206 4.51384 103.916 4.68073L104.039 4.13652C103.327 3.96963 102.613 3.80721 101.897 3.65036L101.782 4.19569ZM106.044 5.19535C106.753 5.37229 107.46 5.55425 108.165 5.74067L108.302 5.20037C107.594 5.01309 106.885 4.83076 106.174 4.65338L106.044 5.19535ZM110.277 6.31558C110.981 6.51205 111.683 6.71355 112.383 6.92006L112.534 6.38423C111.832 6.17664 111.128 5.97421 110.422 5.77695L110.277 6.31558ZM114.479 7.55469C115.177 7.7707 115.873 7.99229 116.567 8.21834L116.733 7.68642C116.036 7.45948 115.338 7.23751 114.638 7.02053L114.479 7.55469ZM118.645 8.91158C119.337 9.14768 120.026 9.38881 120.714 9.6344L120.894 9.10749C120.205 8.86079 119.513 8.6191 118.819 8.38189L118.645 8.91158ZM122.773 10.3862C123.457 10.6419 124.14 10.902 124.821 11.1671L125.016 10.6458C124.333 10.3795 123.648 10.1183 122.96 9.86213L122.773 10.3862ZM126.858 11.977C127.536 12.2516 128.212 12.5312 128.885 12.8153L129.094 12.2996C128.418 12.0144 127.74 11.734 127.061 11.4585L126.858 11.977ZM130.9 13.6822C131.569 13.9759 132.237 14.2743 132.902 14.5775L133.126 14.0679C132.458 13.7637 131.788 13.4641 131.116 13.1692L130.9 13.6822Z" fill="var(--fill-0, #03449E)"/>
</svg>
