<svg preserveAspectRatio="none" width="100%" height="100%" overflow="visible" style="display: block;" viewBox="0 0 8.87671 8.87581" fill="none" xmlns="http://www.w3.org/2000/svg">
<path id="Shape" d="M8.68054 8.68054C8.94089 8.42019 8.94089 7.99808 8.68054 7.73773L5.38117 4.43836L8.68145 1.13807C8.9418 0.877724 8.9418 0.455613 8.68145 0.195264C8.4211 -0.0650856 7.99899 -0.0650859 7.73864 0.195263L4.43836 3.49555L1.13807 0.195262C0.877722 -0.0650873 0.455612 -0.0650874 0.195262 0.195262C-0.0650874 0.455612 -0.0650873 0.877722 0.195262 1.13807L3.49555 4.43836L0.196167 7.73774C-0.0641821 7.99808 -0.0641817 8.4202 0.196168 8.68054C0.456517 8.94089 0.878628 8.94089 1.13898 8.68055L4.43836 5.38117L7.73773 8.68054C7.99808 8.94089 8.42019 8.94089 8.68054 8.68054Z" fill="var(--fill-0, #191D23)"/>
</svg>
